<svg width="30" height="33" viewBox="0 0 30 33" fill="none" xmlns="http://www.w3.org/2000/svg">
<path d="M2 11H3.74001C4.82001 11 5.67 11.93 5.58 13L4.75 22.96C4.61 24.59 5.89999 25.99 7.53999 25.99H18.19C19.63 25.99 20.89 24.81 21 23.38L21.54 15.88C21.66 14.22 20.4 12.87 18.73 12.87H5.82001" stroke="#2A2A2A" stroke-width="1.5" stroke-miterlimit="10" stroke-linecap="round" stroke-linejoin="round"/>
<path d="M16.25 31C16.9404 31 17.5 30.4404 17.5 29.75C17.5 29.0596 16.9404 28.5 16.25 28.5C15.5596 28.5 15 29.0596 15 29.75C15 30.4404 15.5596 31 16.25 31Z" stroke="#2A2A2A" stroke-width="1.5" stroke-miterlimit="10" stroke-linecap="round" stroke-linejoin="round"/>
<path d="M8.25 31C8.94036 31 9.5 30.4404 9.5 29.75C9.5 29.0596 8.94036 28.5 8.25 28.5C7.55964 28.5 7 29.0596 7 29.75C7 30.4404 7.55964 31 8.25 31Z" stroke="#2A2A2A" stroke-width="1.5" stroke-miterlimit="10" stroke-linecap="round" stroke-linejoin="round"/>
<path d="M9 17H21" stroke="#2A2A2A" stroke-width="1.5" stroke-miterlimit="10" stroke-linecap="round" stroke-linejoin="round"/>
<path d="M23.6204 12.5467C23.4937 12.5467 23.3671 12.5001 23.2671 12.4001C23.0737 12.2067 23.0737 11.8867 23.2671 11.6934L26.9604 8.00008L23.2671 4.30674C23.0737 4.11341 23.0737 3.79341 23.2671 3.60008C23.4604 3.40674 23.7804 3.40674 23.9737 3.60008L28.0204 7.64674C28.2137 7.84008 28.2137 8.16008 28.0204 8.35341L23.9737 12.4001C23.8737 12.5001 23.7471 12.5467 23.6204 12.5467Z" fill="#2A2A2A"/>
<path d="M27.553 8.5H16.333C16.0597 8.5 15.833 8.27333 15.833 8C15.833 7.72667 16.0597 7.5 16.333 7.5H27.553C27.8263 7.5 28.053 7.72667 28.053 8C28.053 8.27333 27.8263 8.5 27.553 8.5Z" fill="#2A2A2A"/>
</svg>
